<svg xmlns="http://www.w3.org/2000/svg" viewBox="0 0 448 512" width="32" height="32">
  <defs>
    <linearGradient id="ig-gradient" x1="0%" y1="100%" x2="100%" y2="0%">
      <stop offset="0%" stop-color="#f09433"/>
      <stop offset="25%" stop-color="#e6683c"/>
      <stop offset="50%" stop-color="#dc2743"/>
      <stop offset="75%" stop-color="#cc2366"/>
      <stop offset="100%" stop-color="#bc1888"/>
    </linearGradient>
  </defs>
  <path fill="url(#ig-gradient)" d="M224,202.66A53.34,53.34,0,1,0,277.34,256,53.38,53.38,0,0,0,224,202.66ZM398.8,80A48.6,48.6,0,0,0,368,51.2C337.14,48,110.86,48,80,51.2A48.6,48.6,0,0,0,51.2,80C48,110.86,48,337.14,51.2,368A48.6,48.6,0,0,0,80,398.8c30.86,3.2,257.14,3.2,288,0A48.6,48.6,0,0,0,398.8,368c3.2-30.86,3.2-257.14,0-288ZM224,338a82,82,0,1,1,82-82A82.09,82.09,0,0,1,224,338Zm85.4-148.1a19.2,19.2,0,1,1,19.2-19.2A19.18,19.18,0,0,1,309.4,189.9Z"/>
</svg>
